<mxfile host="app.diagrams.net" modified="2024-06-25T05:20:38.445Z" agent="Mozilla/5.0 (Windows NT 10.0; Win64; x64) AppleWebKit/537.36 (KHTML, like Gecko) Chrome/125.0.0.0 Safari/537.36" etag="7521ozjUfwgltTYP4O7T" version="23.1.4" type="device">
  <diagram name="Страница — 1" id="Gnx1TBdtaZXBf-05ozuN">
    <mxGraphModel dx="1434" dy="780" grid="1" gridSize="10" guides="1" tooltips="1" connect="1" arrows="1" fold="1" page="1" pageScale="1" pageWidth="827" pageHeight="1169" math="0" shadow="0">
      <root>
        <mxCell id="0" />
        <mxCell id="1" parent="0" />
        <mxCell id="llozH3yOrABJJq_BNiU0-1" value="Преподаватель" style="shape=umlActor;verticalLabelPosition=bottom;verticalAlign=top;html=1;outlineConnect=0;" vertex="1" parent="1">
          <mxGeometry x="80" y="360" width="30" height="60" as="geometry" />
        </mxCell>
        <mxCell id="llozH3yOrABJJq_BNiU0-2" value="" style="whiteSpace=wrap;html=1;aspect=fixed;" vertex="1" parent="1">
          <mxGeometry x="190" y="140" width="540" height="540" as="geometry" />
        </mxCell>
        <mxCell id="llozH3yOrABJJq_BNiU0-7" value="Студент" style="shape=umlActor;verticalLabelPosition=bottom;verticalAlign=top;html=1;outlineConnect=0;" vertex="1" parent="1">
          <mxGeometry x="770" y="360" width="30" height="60" as="geometry" />
        </mxCell>
        <mxCell id="llozH3yOrABJJq_BNiU0-8" value="Отправка данных о посещение по QR коду" style="ellipse;whiteSpace=wrap;html=1;" vertex="1" parent="1">
          <mxGeometry x="580" y="350" width="120" height="80" as="geometry" />
        </mxCell>
        <mxCell id="llozH3yOrABJJq_BNiU0-12" value="Просмотр данных о посещениях студента&amp;nbsp;" style="ellipse;whiteSpace=wrap;html=1;" vertex="1" parent="1">
          <mxGeometry x="200" y="260" width="120" height="80" as="geometry" />
        </mxCell>
        <mxCell id="llozH3yOrABJJq_BNiU0-10" value="Генерация отчета" style="ellipse;whiteSpace=wrap;html=1;" vertex="1" parent="1">
          <mxGeometry x="200" y="170" width="120" height="80" as="geometry" />
        </mxCell>
        <mxCell id="llozH3yOrABJJq_BNiU0-11" style="rounded=0;orthogonalLoop=1;jettySize=auto;html=1;exitX=0.5;exitY=0.5;exitDx=0;exitDy=0;exitPerimeter=0;entryX=0;entryY=0.5;entryDx=0;entryDy=0;" edge="1" parent="1" source="llozH3yOrABJJq_BNiU0-1" target="llozH3yOrABJJq_BNiU0-10">
          <mxGeometry relative="1" as="geometry" />
        </mxCell>
        <mxCell id="llozH3yOrABJJq_BNiU0-13" style="rounded=0;orthogonalLoop=1;jettySize=auto;html=1;exitX=0.5;exitY=0.5;exitDx=0;exitDy=0;exitPerimeter=0;entryX=0;entryY=0.5;entryDx=0;entryDy=0;" edge="1" parent="1" source="llozH3yOrABJJq_BNiU0-1" target="llozH3yOrABJJq_BNiU0-12">
          <mxGeometry relative="1" as="geometry" />
        </mxCell>
        <mxCell id="llozH3yOrABJJq_BNiU0-14" value="Добавление студента в систему" style="ellipse;whiteSpace=wrap;html=1;" vertex="1" parent="1">
          <mxGeometry x="200" y="360" width="120" height="80" as="geometry" />
        </mxCell>
        <mxCell id="llozH3yOrABJJq_BNiU0-15" style="rounded=0;orthogonalLoop=1;jettySize=auto;html=1;exitX=0.5;exitY=0.5;exitDx=0;exitDy=0;exitPerimeter=0;entryX=0;entryY=0.5;entryDx=0;entryDy=0;" edge="1" parent="1" source="llozH3yOrABJJq_BNiU0-1" target="llozH3yOrABJJq_BNiU0-14">
          <mxGeometry relative="1" as="geometry" />
        </mxCell>
        <mxCell id="llozH3yOrABJJq_BNiU0-9" style="rounded=0;orthogonalLoop=1;jettySize=auto;html=1;exitX=0.5;exitY=0.5;exitDx=0;exitDy=0;exitPerimeter=0;" edge="1" parent="1" source="llozH3yOrABJJq_BNiU0-7" target="llozH3yOrABJJq_BNiU0-8">
          <mxGeometry relative="1" as="geometry" />
        </mxCell>
        <mxCell id="llozH3yOrABJJq_BNiU0-16" value="Диаграмма прецедентов для системы отслеживания" style="text;html=1;align=center;verticalAlign=middle;whiteSpace=wrap;rounded=0;" vertex="1" parent="1">
          <mxGeometry x="262" y="100" width="396" height="30" as="geometry" />
        </mxCell>
      </root>
    </mxGraphModel>
  </diagram>
</mxfile>
